# xmcd
#
# Track frame offsets:
#	150
#	16212
#	38482
#	52985
#	74105
#	95375
#	115950
#	132997
#	153642
#	172490
#	189960
#	210667
#
# Disc length: 3156 seconds
#
# Revision: 0
# Processed by: cddbd v1.4PL0 Copyright (c) Steve Scherf et al.
# Submitted via: dBpowerAMP V4.0
#
DISCID=a90c520c
DTITLE=Dicky Greenwood Band - A Long Way
DYEAR=1900
DGENRE=Blues
TTITLE0=A Long Way
TTITLE1=If She Really Loves You
TTITLE2=I Don't Lie
TTITLE3=Crazy and Blind
TTITLE4=Made It After All
TTITLE5=Once A Fool
TTITLE6=Green River
TTITLE7=She
TTITLE8=I Love My Baby
TTITLE9=Hit and Run
TTITLE10=30 Nights and 30 Days
TTITLE11=Winter
EXTD=
EXTT0=
EXTT1=
EXTT2=
EXTT3=
EXTT4=
EXTT5=
EXTT6=
EXTT7=
EXTT8=
EXTT9=
EXTT10=
EXTT11=
PLAYORDER=
